<?xml version="1.0" encoding="utf-8"?>
<!-- Generator: Adobe Illustrator 15.0.0, SVG Export Plug-In . SVG Version: 6.00 Build 0)  -->
<!DOCTYPE svg PUBLIC "-//W3C//DTD SVG 1.1//EN" "http://www.w3.org/Graphics/SVG/1.1/DTD/svg11.dtd">
<svg version="1.1" id="Layer_1" xmlns="http://www.w3.org/2000/svg" xmlns:xlink="http://www.w3.org/1999/xlink" x="0px" y="0px"
	 width="1190.549px" height="841.891px" viewBox="0 0 1190.549 841.891" enable-background="new 0 0 1190.549 841.891"
	 xml:space="preserve">
<path fill="#C7D300" d="M1182.856,320.822l-97.485-38.182l-11.149,28.247c-19.777,43.724-52.547,66.625-93.421,61.605
	c-43.423-5.202-73.827-39.593-82.794-80.65c-4.719-22.286-4.627-50.259,12.836-67.827c6.862-6.667,26.691-24.496,45.959-32.521
	l-0.575-0.079l8.509-5.241l-53.631-89.878l-89.983,53.71l10.418,17.411l0,0c59.292,76.206-17.162,145.261-100.871,137.588
	c-85.656-8-155.705-136.595-80.52-211.847l19.202-19.163L595.262,0l-73.997,73.997l19.123,19.163
	c75.291,75.278,5.072,203.847-80.584,211.847c-83.84,7.673-159.993-61.396-100.688-137.589l0,0l10.235-17.411l-89.813-53.71
	l-53.723,89.878l8.443,5.241l-0.68,0.079c19.425,8.026,39.201,25.855,46.051,32.521c17.633,17.568,17.633,45.553,12.744,67.827
	c-8.783,41.058-39.2,75.448-82.688,80.65c-40.992,5.006-73.592-17.895-93.355-61.605l-11.15-28.247L7.694,320.822l38.286,97.655
	L92.513,400.1c129.079-13.189,138.465,154.215,142.596,232.865c0.85,13.581,1.45,26.953,0.94,40.547
	c0,0,110.492-75.277,359.252-75.277c248.864,0,359.187,75.277,359.187,75.277c-0.51-13.581,0.274-26.953,0.836-40.547
	c4.223-78.663,13.686-246.055,142.87-232.865l46.521,18.378L1182.856,320.822z"/>
</svg>
