<?xml version="1.0" standalone="no"?>
<!DOCTYPE svg PUBLIC "-//W3C//DTD SVG 1.1//EN" "http://www.w3.org/Graphics/SVG/1.1/DTD/svg11.dtd">
<svg width="100%" height="100%" viewBox="0 0 32 32" version="1.1" xmlns="http://www.w3.org/2000/svg" xmlns:xlink="http://www.w3.org/1999/xlink" xml:space="preserve" style="fill-rule:evenodd;clip-rule:evenodd;stroke-linejoin:round;stroke-miterlimit:1.41421;">
    <g>
        <rect x="6" y="0" width="4" height="4" style="fill:black;"/>
        <rect x="22" y="0" width="4" height="4" style="fill:black;"/>
        <path d="M30,2L28,2L28,4C28,5.105 27.105,6 26,6L22,6C20.895,6 20,5.105 20,4L20,2L12,2L12,4C12,5.105 11.105,6 10,6L6,6C4.895,6 4,5.105 4,4L4,2L2,2C0.895,2 0,2.895 0,4L0,30C0,31.105 0.895,32 2,32L30,32C31.105,32 32,31.105 32,30L32,4C32,2.895 31.105,2 30,2ZM14,24L8,18L11,15L14,18L21,11L24,14L14,24Z" style="fill:black;fill-rule:nonzero;"/>
    </g>
</svg>
