<?xml version="1.0" standalone="no"?>
<!DOCTYPE svg PUBLIC "-//W3C//DTD SVG 1.1//EN" "http://www.w3.org/Graphics/SVG/1.1/DTD/svg11.dtd">
<svg width="100%" height="100%" viewBox="0 0 2418 2657" version="1.1" xmlns="http://www.w3.org/2000/svg" xmlns:xlink="http://www.w3.org/1999/xlink" xml:space="preserve" style="fill-rule:evenodd;clip-rule:evenodd;stroke-linejoin:round;stroke-miterlimit:1.41421;">
    <g id="(Rectangle)" transform="matrix(2.04716,0,0,1.93377,-1611.93,-1617.65)">
        <rect x="1030.09" y="997.476" width="886.168" height="884.839" style="fill:white;"/>
    </g>
    <g id="(Rectangle)1" transform="matrix(0.196004,0,0,0.483723,618.221,-394.158)">
        <rect x="1030.09" y="997.476" width="886.168" height="884.839" style="fill:white;"/>
    </g>
    <g id="(Rectangle)2" transform="matrix(0.196004,0,0,0.483723,1578.94,-374.147)">
        <rect x="1030.09" y="997.476" width="886.168" height="884.839" style="fill:white;"/>
    </g>
    <g id="Calque1">
        <g transform="matrix(23.7162,0,0,23.7162,212.273,-22705.6)">
            <path d="M30,957.362C26.174,957.362 23,960.536 23,964.362L23,967.362L12,967.362C9.282,967.362 7,969.644 7,972.362L7,1042.36C7,1045.08 9.282,1047.36 12,1047.36L88,1047.36C90.718,1047.36 93,1045.08 93,1042.36L93,972.362C93,969.644 90.718,967.362 88,967.362L77,967.362L77,964.362C77,960.536 73.826,957.362 70,957.362C66.174,957.362 63,960.536 63,964.362L63,967.362L37,967.362L37,964.362C37,960.536 33.826,957.362 30,957.362ZM30,963.362C30.606,963.362 31,963.756 31,964.362L31,976.362C31,976.968 30.606,977.362 30,977.362C29.394,977.362 29,976.968 29,976.362L29,964.362C29,963.756 29.394,963.362 30,963.362ZM70,963.362C70.606,963.362 71,963.756 71,964.362L71,976.362C71,976.968 70.606,977.362 70,977.362C69.394,977.362 69,976.968 69,976.362L69,964.362C69,963.756 69.394,963.362 70,963.362ZM13,973.362L23,973.362L23,976.362C23,980.188 26.174,983.362 30,983.362C33.826,983.362 37,980.188 37,976.362L37,973.362L63,973.362L63,976.362C63,980.188 66.174,983.362 70,983.362C73.826,983.362 77,980.188 77,976.362L77,973.362L87,973.362L87,989.362L13,989.362L13,973.362ZM13,995.362L87,995.362L87,1041.36L13,1041.36L13,995.362L13,995.362Z" style="fill:black;fill-rule:nonzero;"/>
        </g>
        <g id="(Rectangle)3" transform="matrix(2.04716,0,0,2.07539,-1978.35,-1314.5)">
            <rect x="1030.09" y="997.476" width="886.168" height="884.839" style="fill:white;"/>
        </g>
        <g transform="matrix(23.7162,0,0,23.7162,-166.078,-22183.6)">
            <path d="M30,957.362C26.174,957.362 23,960.536 23,964.362L23,967.362L12,967.362C9.282,967.362 7,969.644 7,972.362L7,1042.36C7,1045.08 9.282,1047.36 12,1047.36L88,1047.36C90.718,1047.36 93,1045.08 93,1042.36L93,972.362C93,969.644 90.718,967.362 88,967.362L77,967.362L77,964.362C77,960.536 73.826,957.362 70,957.362C66.174,957.362 63,960.536 63,964.362L63,967.362L37,967.362L37,964.362C37,960.536 33.826,957.362 30,957.362ZM30,963.362C30.606,963.362 31,963.756 31,964.362L31,976.362C31,976.968 30.606,977.362 30,977.362C29.394,977.362 29,976.968 29,976.362L29,964.362C29,963.756 29.394,963.362 30,963.362ZM70,963.362C70.606,963.362 71,963.756 71,964.362L71,976.362C71,976.968 70.606,977.362 70,977.362C69.394,977.362 69,976.968 69,976.362L69,964.362C69,963.756 69.394,963.362 70,963.362ZM13,973.362L23,973.362L23,976.362C23,980.188 26.174,983.362 30,983.362C33.826,983.362 37,980.188 37,976.362L37,973.362L63,973.362L63,976.362C63,980.188 66.174,983.362 70,983.362C73.826,983.362 77,980.188 77,976.362L77,973.362L87,973.362L87,989.362L13,989.362L13,973.362ZM13,995.362L87,995.362L87,1041.36L13,1041.36L13,995.362L13,995.362Z" style="fill:black;fill-rule:nonzero;"/>
        </g>
    </g>
</svg>
