<?xml version="1.0" standalone="no"?>
<!DOCTYPE svg PUBLIC "-//W3C//DTD SVG 1.1//EN" "http://www.w3.org/Graphics/SVG/1.1/DTD/svg11.dtd">
<svg width="100%" height="100%" viewBox="0 0 87 91" version="1.1" xmlns="http://www.w3.org/2000/svg" xmlns:xlink="http://www.w3.org/1999/xlink" xml:space="preserve" style="fill-rule:evenodd;clip-rule:evenodd;stroke-linejoin:round;stroke-miterlimit:1.41421;">
    <g transform="matrix(1,0,0,1,-6.93149,-957.22)">
        <path d="M30,957.362C26.174,957.362 23,960.536 23,964.362L23,967.362L12,967.362C9.282,967.362 7,969.644 7,972.362L7,1042.36C7,1045.08 9.282,1047.36 12,1047.36L88,1047.36C90.718,1047.36 93,1045.08 93,1042.36L93,972.362C93,969.644 90.718,967.362 88,967.362L77,967.362L77,964.362C77,960.536 73.826,957.362 70,957.362C66.174,957.362 63,960.536 63,964.362L63,967.362L37,967.362L37,964.362C37,960.536 33.826,957.362 30,957.362ZM30,963.362C30.606,963.362 31,963.756 31,964.362L31,976.362C31,976.968 30.606,977.362 30,977.362C29.394,977.362 29,976.968 29,976.362L29,964.362C29,963.756 29.394,963.362 30,963.362ZM70,963.362C70.606,963.362 71,963.756 71,964.362L71,976.362C71,976.968 70.606,977.362 70,977.362C69.394,977.362 69,976.968 69,976.362L69,964.362C69,963.756 69.394,963.362 70,963.362ZM13,973.362L23,973.362L23,976.362C23,980.188 26.174,983.362 30,983.362C33.826,983.362 37,980.188 37,976.362L37,973.362L63,973.362L63,976.362C63,980.188 66.174,983.362 70,983.362C73.826,983.362 77,980.188 77,976.362L77,973.362L87,973.362L87,989.362L13,989.362L13,973.362ZM13,995.362L87,995.362L87,1041.36L13,1041.36L13,995.362L13,995.362ZM50,1001.36C48.343,1001.36 47,1002.71 47,1004.36L47,1015.36L36,1015.36C34.343,1015.36 33,1016.71 33,1018.36C33,1020.02 34.343,1021.36 36,1021.36L47,1021.36L47,1032.36C47,1034.02 48.343,1035.36 50,1035.36C51.657,1035.36 53,1034.02 53,1032.36L53,1021.36L64,1021.36C65.657,1021.36 67,1020.02 67,1018.36C67,1016.71 65.657,1015.36 64,1015.36L53,1015.36L53,1004.36C53,1002.71 51.657,1001.36 50,1001.36L50,1001.36Z" style="fill:black;fill-rule:nonzero;"/>
    </g>
</svg>
