<?xml version="1.0" standalone="no"?>
<!DOCTYPE svg PUBLIC "-//W3C//DTD SVG 1.1//EN" "http://www.w3.org/Graphics/SVG/1.1/DTD/svg11.dtd">
<svg width="100%" height="100%" viewBox="0 0 90 51" version="1.1" xmlns="http://www.w3.org/2000/svg" xmlns:xlink="http://www.w3.org/1999/xlink" xml:space="preserve" style="fill-rule:evenodd;clip-rule:evenodd;stroke-linejoin:round;stroke-miterlimit:1.41421;">
    <g transform="matrix(1,0,0,1,-5.0077,-24.566)">
        <path d="M49.999,52.371C56.703,52.371 62.158,46.918 62.158,40.217C62.158,33.512 56.703,28.058 49.999,28.058C43.293,28.058 37.838,33.512 37.838,40.217C37.838,46.918 43.293,52.371 49.999,52.371ZM49.999,32.795C54.092,32.795 57.421,36.124 57.421,40.217C57.421,44.307 54.092,47.635 49.999,47.635C45.905,47.635 42.574,44.307 42.574,40.217C42.574,36.124 45.905,32.795 49.999,32.795ZM94.993,62.519C95.091,63.824 94.113,64.96 92.808,65.058C92.748,65.063 92.688,65.065 92.627,65.065C91.4,65.065 90.361,64.118 90.269,62.875C89.875,57.643 87.725,51.638 74.471,51.638C68.401,51.638 64.173,52.877 61.645,55.4C69.696,57.988 74.116,63.718 74.781,72.561C74.879,73.866 73.901,75.003 72.596,75.101C71.299,75.203 70.155,74.222 70.057,72.916C69.553,66.22 66.818,58.534 49.998,58.534C33.166,58.534 30.439,66.223 29.942,72.923C29.849,74.168 28.81,75.116 27.583,75.116C27.523,75.116 27.465,75.114 27.405,75.109C26.101,75.013 25.122,73.878 25.218,72.573C25.873,63.72 30.291,57.987 38.348,55.398C35.82,52.878 31.594,51.639 25.525,51.637C12.264,51.637 10.118,57.644 9.729,62.876C9.636,64.122 8.597,65.07 7.37,65.07C7.31,65.07 7.252,65.068 7.192,65.063C5.888,64.966 4.908,63.831 5.005,62.526C5.775,52.157 12.678,46.899 25.526,46.899C34.427,46.903 40.32,49.315 43.488,54.244C45.502,53.958 47.657,53.796 49.998,53.796C52.339,53.796 54.494,53.958 56.508,54.244C59.675,49.312 65.569,46.899 74.471,46.899C87.31,46.899 94.214,52.154 94.993,62.519ZM74.472,45.479C80.151,45.479 84.771,40.862 84.771,35.186C84.771,29.506 80.151,24.885 74.472,24.885C68.793,24.885 64.171,29.506 64.171,35.186C64.171,40.861 68.793,45.479 74.472,45.479ZM74.472,29.621C77.538,29.621 80.034,32.117 80.034,35.185C80.034,38.249 77.539,40.742 74.472,40.742C71.405,40.742 68.909,38.25 68.909,35.185C68.908,32.117 71.404,29.621 74.472,29.621ZM25.527,45.479C31.206,45.479 35.826,40.862 35.826,35.186C35.826,29.506 31.206,24.885 25.527,24.885C19.847,24.885 15.226,29.506 15.226,35.186C15.227,40.861 19.848,45.479 25.527,45.479ZM25.527,29.621C28.594,29.621 31.089,32.117 31.089,35.185C31.089,38.249 28.594,40.742 25.527,40.742C22.46,40.742 19.964,38.25 19.964,35.185C19.964,32.117 22.46,29.621 25.527,29.621Z" style="fill:black;fill-rule:nonzero;"/>
    </g>
</svg>
